<?xml version="1.0" encoding="UTF-8"?>
<svg id="Layer_2" data-name="Layer 2" xmlns="http://www.w3.org/2000/svg" viewBox="0 0 583.48 583.48">
  <defs>
    <style>
      .cls-1 {
        font-family: Inter-Regular, Inter;
        font-size: 223.5px;
      }

      .cls-1, .cls-2 {
        fill: #fff;
      }

      .cls-3 {
        fill: #f23d3d;
      }
    </style>
  </defs>
  <g id="Layer_1-2" data-name="Layer 1">
    <g>
      <path class="cls-3" d="M291.74,582.98c-77.79,0-150.93-30.29-205.94-85.3C30.79,442.67.5,369.54.5,291.74S30.79,140.81,85.8,85.8C140.81,30.79,213.95.5,291.74.5s150.93,30.29,205.94,85.3c55.01,55.01,85.3,128.15,85.3,205.94s-30.29,150.93-85.3,205.94c-55.01,55.01-128.15,85.3-205.94,85.3Z"/>
      <path class="cls-2" d="M291.74,1c39.25,0,77.33,7.69,113.17,22.85,34.62,14.64,65.71,35.61,92.42,62.31,26.7,26.7,47.67,57.79,62.31,92.42,15.16,35.84,22.85,73.92,22.85,113.17s-7.69,77.33-22.85,113.17c-14.64,34.62-35.61,65.71-62.31,92.42-26.7,26.7-57.79,47.67-92.42,62.31-35.84,15.16-73.92,22.85-113.17,22.85s-77.33-7.69-113.17-22.85c-34.62-14.64-65.71-35.61-92.42-62.31-26.7-26.7-47.67-57.79-62.31-92.42C8.69,369.07,1,330.99,1,291.74s7.69-77.33,22.85-113.17c14.64-34.62,35.61-65.71,62.31-92.42,26.7-26.7,57.79-47.67,92.42-62.31C214.42,8.69,252.49,1,291.74,1M291.74,0C130.62,0,0,130.62,0,291.74s130.62,291.74,291.74,291.74,291.74-130.62,291.74-291.74S452.87,0,291.74,0h0Z"/>
    </g>
    <text class="cls-1" transform="translate(140.31 367.32)"><tspan x="0" y="0">3D</tspan></text>
  </g>
</svg>