<?xml version="1.0" encoding="UTF-8"?>
<svg id="Layer_2" data-name="Layer 2" xmlns="http://www.w3.org/2000/svg" viewBox="0 0 536.33 536.33">
  <defs>
    <style>
      .cls-1 {
        font-family: Inter-Regular, Inter;
        font-size: 102.5px;
      }

      .cls-1, .cls-2 {
        fill: #fff;
      }

      .cls-3 {
        fill: #1398ff;
      }
    </style>
  </defs>
  <g id="Layer_1-2" data-name="Layer 1">
    <g>
      <path class="cls-3" d="M268.16,535.83c-16.93,0-32.85-6.59-44.82-18.56L19.06,312.98c-24.71-24.71-24.71-64.92,0-89.63L223.35,19.06C235.32,7.09,251.24.5,268.16.5s32.84,6.59,44.82,18.56l204.28,204.28c24.71,24.71,24.71,64.92,0,89.63l-204.28,204.28c-11.97,11.97-27.89,18.56-44.82,18.56Z"/>
      <path class="cls-2" d="M268.16,1c16.8,0,32.59,6.54,44.46,18.42l204.28,204.28c11.88,11.88,18.42,27.67,18.42,44.46s-6.54,32.59-18.42,44.46l-204.28,204.28c-11.88,11.88-27.67,18.42-44.46,18.42s-32.59-6.54-44.46-18.42L19.42,312.63c-11.88-11.88-18.42-27.67-18.42-44.46s6.54-32.59,18.42-44.46L223.7,19.42C235.58,7.54,251.37,1,268.16,1M268.16,0c-16.35,0-32.7,6.24-45.17,18.71L18.71,222.99c-24.95,24.95-24.95,65.39,0,90.34l204.28,204.28c12.47,12.47,28.82,18.71,45.17,18.71s32.7-6.24,45.17-18.71l204.28-204.28c24.95-24.95,24.95-65.39,0-90.34L313.33,18.71c-12.47-12.47-28.82-18.71-45.17-18.71h0Z"/>
    </g>
    <text class="cls-1" transform="translate(175.1 404.83) rotate(-45)"><tspan x="0" y="0">Motion</tspan></text>
  </g>
</svg>