<?xml version="1.0" encoding="UTF-8"?>
<svg id="Layer_2" data-name="Layer 2" xmlns="http://www.w3.org/2000/svg" viewBox="0 0 498.04 498.04">
  <defs>
    <style>
      .cls-1 {
        fill: #fff;
      }

      .cls-2 {
        fill: #d1c700;
      }

      .cls-3 {
        letter-spacing: 0em;
      }

      .cls-4 {
        font-family: Inter-Regular, Inter;
        font-size: 102.5px;
      }
    </style>
  </defs>
  <g id="Layer_1-2" data-name="Layer 1">
    <g>
      <path class="cls-2" d="M291.74,497.54c-77.79,0-150.93-30.29-205.94-85.3C30.79,357.22.5,284.09.5,206.29S30.66,55.68,85.45.71l411.88,411.88c-54.97,54.79-127.96,84.95-205.59,84.95Z"/>
      <path class="cls-1" d="M85.45,1.42l411.17,411.17c-27.6,27.42-59.71,48.66-95.47,63.16-34.83,14.12-71.64,21.29-109.41,21.29s-74.57-7.16-109.41-21.29c-36.07-14.63-68.43-36.11-96.18-63.86-27.75-27.75-49.24-60.11-63.87-96.18C8.16,280.86,1,244.05,1,206.29s7.16-74.57,21.29-109.41C36.79,61.13,58.04,29.01,85.45,1.42M85.45,0c-113.93,113.93-113.93,298.65,0,412.59,56.96,56.96,131.64,85.45,206.29,85.45s149.32-28.48,206.29-85.45L85.45,0h0Z"/>
    </g>
    <text class="cls-4" transform="translate(72.61 137.26) rotate(45)"><tspan x="0" y="0">Stra</tspan><tspan class="cls-3" x="198.59" y="0">t</tspan><tspan x="235.28" y="0">egy</tspan></text>
  </g>
</svg>